<svg xmlns="http://www.w3.org/2000/svg" xmlns:xlink="http://www.w3.org/1999/xlink" width="500" zoomAndPan="magnify" viewBox="0 0 375 374.999991" height="500" preserveAspectRatio="xMidYMid meet" version="1.0"><defs><clipPath id="0ed161d3d7"><path d="M 187.5 375 C 137.441406 375 90.304688 355.515625 54.929688 320.070312 C 19.484375 284.695312 0 237.558594 0 187.5 C 0 137.441406 19.484375 90.304688 54.929688 54.929688 C 90.304688 19.484375 137.441406 0 187.5 0 C 237.558594 0 284.695312 19.484375 320.070312 54.929688 C 355.515625 90.378906 375 137.441406 375 187.5 C 375 237.558594 355.515625 284.695312 320.070312 320.070312 C 284.695312 355.515625 237.558594 375 187.5 375 Z M 187.5 11.242188 C 140.4375 11.242188 96.148438 29.601562 62.875 62.875 C 29.601562 96.148438 11.242188 140.4375 11.242188 187.5 C 11.242188 234.5625 29.601562 278.851562 62.875 312.125 C 96.148438 345.398438 140.4375 363.757812 187.5 363.757812 C 234.5625 363.757812 278.851562 345.398438 312.125 312.125 C 345.398438 278.851562 363.757812 234.5625 363.757812 187.5 C 363.757812 140.4375 345.398438 96.148438 312.125 62.875 C 278.851562 29.601562 234.5625 11.242188 187.5 11.242188 Z M 187.5 11.242188 " clip-rule="nonzero"/></clipPath><clipPath id="8a41a625c7"><path d="M 54.945312 158 L 319.695312 158 L 319.695312 295.214844 L 54.945312 295.214844 Z M 54.945312 158 " clip-rule="nonzero"/></clipPath><clipPath id="48c2dbfdf5"><path d="M 132 79.964844 L 243 79.964844 L 243 192 L 132 192 Z M 132 79.964844 " clip-rule="nonzero"/></clipPath></defs><g clip-path="url(#0ed161d3d7)"><path fill="#f39d0f" d="M 0 0 L 374.699219 0 L 374.699219 374.699219 L 0 374.699219 Z M 0 0 " fill-opacity="1" fill-rule="nonzero"/></g><g clip-path="url(#8a41a625c7)"><path fill="#ffffff" d="M 311.851562 252.734375 C 303.5 252.183594 284.140625 251.484375 262.765625 254.574219 C 247.347656 256.800781 233.894531 260.585938 222.722656 265.832031 C 234.492188 259.449219 246.988281 255.394531 257.722656 252.835938 C 282.007812 247.035156 302.757812 247.382812 302.964844 247.390625 L 306.960938 247.46875 L 306.960938 194.667969 C 308.578125 194.449219 310.207031 194.246094 311.851562 194.066406 Z M 212.917969 262.398438 C 227.132812 251.109375 251.996094 237.222656 290.652344 233.855469 L 294.234375 233.542969 L 294.234375 181.144531 C 295.847656 180.921875 297.476562 180.71875 299.121094 180.542969 L 299.121094 239.550781 C 291.734375 239.71875 275.015625 240.625 255.90625 245.1875 C 240.992188 248.742188 227.75 253.804688 216.539062 260.230469 C 215.308594 260.9375 214.101562 261.660156 212.917969 262.398438 Z M 191.242188 272.710938 L 191.242188 219.066406 C 192.863281 216.261719 199.210938 206.210938 212.226562 195.695312 C 225.800781 184.726562 249.542969 171.0625 286.390625 167.015625 L 286.390625 226.367188 C 269.464844 228.148438 253.757812 232.003906 239.636719 237.84375 C 227.488281 242.859375 216.480469 249.351562 206.929688 257.132812 C 200.035156 262.757812 194.898438 268.21875 191.242188 272.710938 Z M 183.398438 272.710938 C 179.742188 268.21875 174.605469 262.757812 167.710938 257.132812 C 158.15625 249.351562 147.152344 242.859375 135.003906 237.84375 C 120.882812 232.003906 105.171875 228.148438 88.25 226.367188 L 88.25 167.015625 C 125.097656 171.0625 148.835938 184.726562 162.414062 195.695312 C 175.429688 206.210938 181.773438 216.261719 183.398438 219.066406 Z M 158.101562 260.230469 C 146.890625 253.804688 133.644531 248.742188 118.734375 245.1875 C 99.625 240.625 82.90625 239.71875 75.519531 239.550781 L 75.519531 180.542969 C 77.164062 180.71875 78.792969 180.921875 80.40625 181.144531 L 80.40625 233.542969 L 83.984375 233.855469 C 122.644531 237.222656 147.507812 251.109375 161.722656 262.398438 C 160.539062 261.660156 159.332031 260.9375 158.101562 260.230469 Z M 111.875 254.574219 C 90.5 251.484375 71.140625 252.183594 62.785156 252.734375 L 62.785156 194.066406 C 64.433594 194.246094 66.0625 194.449219 67.675781 194.667969 L 67.675781 247.46875 L 71.675781 247.390625 C 71.878906 247.382812 92.632812 247.035156 116.917969 252.835938 C 127.652344 255.394531 140.148438 259.449219 151.914062 265.832031 C 140.746094 260.585938 127.292969 256.800781 111.875 254.574219 Z M 315.433594 185.8125 C 312.585938 186.058594 309.753906 186.375 306.960938 186.742188 L 306.960938 171.914062 L 302.699219 172.289062 C 299.851562 172.539062 297.019531 172.851562 294.234375 173.214844 L 294.234375 158.394531 L 289.972656 158.765625 C 271.683594 160.355469 254.742188 164.332031 239.636719 170.582031 C 227.488281 175.605469 216.480469 182.097656 206.929688 189.878906 C 197.058594 197.917969 190.800781 205.644531 187.320312 210.640625 C 183.839844 205.644531 177.582031 197.917969 167.710938 189.878906 C 158.15625 182.097656 147.152344 175.605469 135.003906 170.582031 C 119.894531 164.332031 102.957031 160.355469 84.667969 158.765625 L 80.40625 158.394531 L 80.40625 173.214844 C 77.621094 172.851562 74.789062 172.539062 71.9375 172.289062 L 67.675781 171.914062 L 67.675781 186.742188 C 64.886719 186.375 62.054688 186.058594 59.207031 185.8125 L 54.945312 185.4375 L 54.945312 261.335938 C 54.945312 261.335938 54.957031 261.335938 54.972656 261.332031 L 59.261719 260.894531 C 59.480469 260.875 78.703125 258.972656 101.867188 261.277344 C 101.917969 261.285156 101.976562 261.289062 102.027344 261.292969 C 104.9375 261.585938 107.90625 261.941406 110.910156 262.378906 C 121.058594 263.851562 132.453125 266.367188 143.160156 270.652344 C 158.128906 275.976562 173.34375 283.804688 187.320312 295.207031 C 201.296875 283.804688 216.507812 275.976562 231.480469 270.652344 C 242.183594 266.367188 253.582031 263.851562 263.730469 262.378906 C 266.734375 261.941406 269.699219 261.585938 272.613281 261.292969 C 272.664062 261.289062 272.71875 261.285156 272.773438 261.277344 C 295.941406 258.972656 315.160156 260.875 315.378906 260.894531 L 319.636719 261.328125 L 319.667969 261.332031 C 319.683594 261.335938 319.695312 261.335938 319.695312 261.335938 L 319.695312 185.4375 L 315.433594 185.8125 " fill-opacity="1" fill-rule="nonzero"/></g><g clip-path="url(#48c2dbfdf5)"><path fill="#f39d0f" d="M 242.351562 79.972656 C 192.757812 104.066406 187.734375 171.746094 187.332031 191.234375 L 187.320312 158.339844 L 187.300781 191.226562 C 186.902344 171.722656 181.878906 104.0625 132.285156 79.972656 C 132.816406 80.085938 159.542969 85.925781 176.355469 103.046875 C 182.382812 109.179688 192.257812 109.179688 198.28125 103.046875 C 215.097656 85.925781 241.824219 80.085938 242.351562 79.972656 " fill-opacity="1" fill-rule="nonzero"/></g><path fill="#f39d0f" d="M 195.542969 189.847656 C 195.542969 189.847656 225.890625 136.292969 287.15625 142.242188 C 287.15625 142.242188 267.117188 133.316406 241.351562 134.308594 C 215.585938 135.300781 226.464844 101.082031 241.351562 95.128906 C 241.351562 95.128906 208.714844 97.609375 195.542969 189.847656 " fill-opacity="1" fill-rule="nonzero"/><path fill="#f39d0f" d="M 252.804688 119.125 C 252.804688 124.484375 248.46875 128.832031 243.117188 128.832031 C 237.769531 128.832031 233.429688 124.484375 233.429688 119.125 C 233.429688 113.761719 237.769531 109.414062 243.117188 109.414062 C 248.46875 109.414062 252.804688 113.761719 252.804688 119.125 " fill-opacity="1" fill-rule="nonzero"/><path fill="#f39d0f" d="M 179.09375 189.847656 C 179.09375 189.847656 148.75 136.292969 87.484375 142.242188 C 87.484375 142.242188 107.523438 133.316406 133.289062 134.308594 C 159.054688 135.300781 148.175781 101.082031 133.289062 95.128906 C 133.289062 95.128906 165.925781 97.609375 179.09375 189.847656 " fill-opacity="1" fill-rule="nonzero"/><path fill="#f39d0f" d="M 121.832031 119.125 C 121.832031 124.484375 126.171875 128.832031 131.519531 128.832031 C 136.871094 128.832031 141.207031 124.484375 141.207031 119.125 C 141.207031 113.761719 136.871094 109.414062 131.519531 109.414062 C 126.171875 109.414062 121.832031 113.761719 121.832031 119.125 " fill-opacity="1" fill-rule="nonzero"/><path fill="#f39d0f" d="M 197.007812 91.683594 C 197.007812 97.046875 192.671875 101.390625 187.320312 101.390625 C 181.96875 101.390625 177.632812 97.046875 177.632812 91.683594 C 177.632812 86.320312 181.96875 81.976562 187.320312 81.976562 C 192.671875 81.976562 197.007812 86.320312 197.007812 91.683594 " fill-opacity="1" fill-rule="nonzero"/></svg>